<?xml version="1.0" standalone="no"?>
<!DOCTYPE svg PUBLIC "-//W3C//DTD SVG 20010904//EN"
 "http://www.w3.org/TR/2001/REC-SVG-20010904/DTD/svg10.dtd">
<svg version="1.0" xmlns="http://www.w3.org/2000/svg"
 width="260.000000pt" height="260.000000pt" viewBox="0 0 260.000000 260.000000"
 preserveAspectRatio="xMidYMid meet">
<metadata>
Created by potrace 1.11, written by Peter Selinger 2001-2013
</metadata>
<g transform="translate(0.000000,260.000000) scale(0.100000,-0.100000)"
fill="#000000" stroke="none">
<path d="M1286 2198 c-21 -160 -75 -347 -138 -474 -82 -166 -189 -252 -410
-329 -97 -34 -316 -85 -363 -85 -34 0 -32 -20 3 -21 15 0 34 -2 42 -4 8 -2 53
-11 100 -20 170 -33 350 -102 452 -173 108 -75 183 -195 246 -393 31 -95 70
-274 74 -336 3 -47 15 -27 22 37 3 30 8 64 11 75 2 11 14 58 25 105 46 200
116 353 204 448 77 83 229 162 406 209 71 19 246 53 271 53 10 0 19 5 19 10 0
6 -11 10 -24 10 -41 0 -216 39 -319 71 -308 95 -427 213 -525 520 -31 97 -72
282 -72 325 0 45 -17 24 -24 -28z"/>
</g>
</svg>
